<?xml version="1.0" encoding="UTF-8"?>
<svg xmlns="http://www.w3.org/2000/svg"
     xmlns:fn="http://www.w3.org/2005/xpath-functions"
     xmlns:fn_wb="http://multimedia.informatik.htw-aalen.de/xslt"
     xmlns:svg="http://www.w3.org/2000/svg"
     xmlns:xlink="http://www.w3.org/1999/xlink"
     xmlns:xs="http://www.w3.org/2001/XMLSchema"
     width="850"
     height="570">
   <title>Dizzle Blatt Level 3</title>
   <desc>Version 1.0. DizzleSheet created by Schmidt Spiele (Official) at 2020-10-27</desc>
   <defs>
      <circle id="DiceEye"
              cx="0"
              cy="0"
              r="6"
              stroke="grey"
              stroke-width="1"
              fill="white"
              fill-opacity="70%"/>
      <rect id="Field"
            width="60"
            height="60"
            fill="white"
            stroke="black"
            stroke-width="1px"/>
      <g id="Start">
         <image href="src/Start.png" x="3" y="3" width="55" height="55"/>
      </g>
      <g id="Dice1">
         <use xlink:href="#DiceEye" x="30" y="30"/>
      </g>
      <g id="Dice2">
         <use xlink:href="#DiceEye" x="15" y="15"/>
         <use xlink:href="#DiceEye" x="45" y="45"/>
      </g>
      <g id="Dice3">
         <use xlink:href="#DiceEye" x="45" y="15"/>
         <use xlink:href="#DiceEye" x="30" y="30"/>
         <use xlink:href="#DiceEye" x="15" y="45"/>
      </g>
      <g id="Dice4">
         <use xlink:href="#DiceEye" x="45" y="15"/>
         <use xlink:href="#DiceEye" x="45" y="45"/>
         <use xlink:href="#DiceEye" x="15" y="45"/>
         <use xlink:href="#DiceEye" x="15" y="15"/>
      </g>
      <g id="Dice5">
         <use xlink:href="#DiceEye" x="45" y="15"/>
         <use xlink:href="#DiceEye" x="45" y="45"/>
         <use xlink:href="#DiceEye" x="15" y="45"/>
         <use xlink:href="#DiceEye" x="15" y="15"/>
         <use xlink:href="#DiceEye" x="30" y="30"/>
      </g>
      <g id="Dice6">
         <use xlink:href="#DiceEye" x="45" y="15"/>
         <use xlink:href="#DiceEye" x="45" y="45"/>
         <use xlink:href="#DiceEye" x="15" y="45"/>
         <use xlink:href="#DiceEye" x="15" y="15"/>
         <use xlink:href="#DiceEye" x="15" y="30"/>
         <use xlink:href="#DiceEye" x="45" y="30"/>
      </g>
      <line id="CategoryLine"
            x1="90"
            x2="190"
            y1="45"
            y2="45"
            stroke="black"
            stroke-width="2px"
            stroke-dasharray="17 3"/>
      <line id="TotalLine"
            x1="70"
            x2="190"
            y1="45"
            y2="45"
            stroke="black"
            stroke-width="2px"
            stroke-dasharray="17 3"/>
      <rect id="PlayerCount"
            x="0"
            y="0"
            width="24"
            height="24"
            fill="white"
            stroke="black"/>
      <image id="Player" href="src/User.png" width="15" height="15"/>
      <g id="Player1">
         <use xlink:href="#Player" x="0" y="0"/>
      </g>
      <g id="Player2">
         <use xlink:href="#Player" x="0" y="0"/>
         <use xlink:href="#Player" x="7" y="2"/>
      </g>
      <g id="Player3">
         <use xlink:href="#Player" x="0" y="0"/>
         <use xlink:href="#Player" x="7" y="2"/>
         <use xlink:href="#Player" x="14" y="0"/>
      </g>
      <g id="Player4">
         <use xlink:href="#Player" x="0" y="0"/>
         <use xlink:href="#Player" x="7" y="2"/>
         <use xlink:href="#Player" x="14" y="0"/>
         <use xlink:href="#Player" x="21" y="2"/>
      </g>
      <path id="ArrowToRotate"
            d="M 10 10 l 20 0 l 0 -10 l 20 15 l -20 15 l 0 -10 l -20 0 z"
            fill="black"
            stroke="white"
            stroke-width="2px"
            transform="scale(0.5,0.5)"/>
      <use id="Arrow_r"
           xlink:href="#ArrowToRotate"
           x="32"
           y="22"
           transform="rotate(0,12.5,7.5)"/>
      <use id="Arrow_d"
           xlink:href="#ArrowToRotate"
           x="38"
           y="-17"
           transform="rotate(90,12.5,7.5)"/>
      <use id="Arrow_l"
           xlink:href="#ArrowToRotate"
           x="-3"
           y="-22"
           transform="rotate(180,12.5,7.5)"/>
      <use id="Arrow_u"
           xlink:href="#ArrowToRotate"
           x="-7"
           y="17"
           transform="rotate(270,12.5,7.5)"/>
   </defs>
   <style type="text/css">
        	
				text {
					font-family: Arial, sans-serif;
					font-weight: bold;
				}

				#TextArrowPoints {
					font-size: 0.9em;
					letter-spacing: -.1rem;
				}

				#TextCategory {
					text-anchor: end;
				}
				
				#TextTitle {
					font-size: 1.5em;
				}

				#TextPlayerCount {
					text-anchor: middle;
					letter-spacing: -.1rem;
				}
		    
        </style>
   <rect width="100%" height="100%" stroke="none" fill="#719D3B"/>
   <image href="src/Logo.png" x="20" y="0" width="150" height="65"/>
   <text id="TextTitle" x="170" y="50" fill="white">LEVEL 3</text>
   <g transform="translate(420 10)">
      <rect x="0"
            y="0"
            width="410"
            height="50"
            fill="white"
            fill-opacity="25%"
            rx="4"
            ry="4"/>
      <line x1="10"
            x2="382"
            y1="32"
            y2="32"
            stroke="black"
            stroke-width="1px"
            stroke-dasharray="24 4 8 4"/>
      <use xlink:href="#PlayerCount" x="10" y="20"/>
      <text id="TextPlayerCount" x="21" y="38">1</text>
      <use xlink:href="#PlayerCount" x="50" y="20"/>
      <text id="TextPlayerCount" x="61" y="38">2</text>
      <use xlink:href="#PlayerCount" x="90" y="20"/>
      <text id="TextPlayerCount" x="101" y="38">3</text>
      <use xlink:href="#Player4" x="84" y="1"/>
      <use xlink:href="#PlayerCount" x="130" y="20"/>
      <text id="TextPlayerCount" x="141" y="38">4</text>
      <use xlink:href="#Player3" x="128" y="1"/>
      <use xlink:href="#PlayerCount" x="170" y="20"/>
      <text id="TextPlayerCount" x="181" y="38">5</text>
      <use xlink:href="#PlayerCount" x="210" y="20"/>
      <text id="TextPlayerCount" x="221" y="38">6</text>
      <use xlink:href="#Player2" x="212" y="1"/>
      <use xlink:href="#PlayerCount" x="250" y="20"/>
      <text id="TextPlayerCount" x="261" y="38">7</text>
      <use xlink:href="#PlayerCount" x="290" y="20"/>
      <text id="TextPlayerCount" x="301" y="38">8</text>
      <use xlink:href="#PlayerCount" x="330" y="20"/>
      <text id="TextPlayerCount" x="341" y="38">9</text>
      <use xlink:href="#PlayerCount" x="370" y="20"/>
      <text id="TextPlayerCount" x="381" y="38">10</text>
      <use xlink:href="#Player1" x="375" y="3"/>
   </g>
   <rect x="20"
         y="70"
         fill="white"
         fill-opacity="25%"
         stroke="white"
         stroke-width="1px"
         rx="5"
         ry="5"
         width="600"
         height="480"/>
   <g id="FieldCol1Row1" transform="translate(50 100)">
      <use xlink:href="#Field" x="0" y="0"/>
      <image x="2.5"
             y="2.5"
             width="54"
             height="54"
             opacity="0.9"
             href="src/CrossedField_Bomb.png"/>
      <use xlink:href="#Dice5"/>
   </g>
   <g id="FieldCol1Row2" transform="translate(50 160)">
      <use xlink:href="#Field" x="0" y="0"/>
      <image x="2.5"
             y="2.5"
             width="54"
             height="54"
             opacity="0.9"
             href="src/PurpleGem.png"/>
      <use xlink:href="#Dice1"/>
   </g>
   <g id="FieldCol1Row3" transform="translate(50 220)">
      <use xlink:href="#Field" x="0" y="0"/>
      <use xlink:href="#Dice6"/>
   </g>
   <g id="FieldCol1Row4" transform="translate(50 280)">
      <use xlink:href="#Field" x="0" y="0"/>
      <use xlink:href="#Dice5"/>
   </g>
   <g id="FieldCol1Row5" transform="translate(50 340)">
      <use xlink:href="#Field" x="0" y="0"/>
      <use xlink:href="#Dice4"/>
   </g>
   <g id="FieldCol1Row6" transform="translate(50 400)">
      <use xlink:href="#Field" x="0" y="0"/>
      <image x="2.5"
             y="2.5"
             width="54"
             height="54"
             opacity="0.9"
             href="src/PurpleGem.png"/>
      <use xlink:href="#Dice6"/>
   </g>
   <g id="FieldCol1Row7" transform="translate(50 460)">
      <use xlink:href="#Field" x="0" y="0"/>
      <image x="2.5"
             y="2.5"
             width="54"
             height="54"
             opacity="0.9"
             href="src/Travel_Rocket.png"/>
      <use xlink:href="#Dice2"/>
   </g>
   <g id="FieldCol2Row1" transform="translate(110 100)">
      <use xlink:href="#Field" x="0" y="0"/>
      <image x="2.5"
             y="2.5"
             width="54"
             height="54"
             opacity="0.9"
             href="src/PurpleGem.png"/>
      <use xlink:href="#Dice3"/>
   </g>
   <g id="FieldCol2Row2" transform="translate(110 160)">
      <use xlink:href="#Field" x="0" y="0"/>
      <image x="2.5"
             y="2.5"
             width="54"
             height="54"
             opacity="0.9"
             href="src/PurpleGem.png"/>
      <use xlink:href="#Dice2"/>
   </g>
   <g id="FieldCol2Row3" transform="translate(110 220)">
      <use xlink:href="#Field" x="0" y="0"/>
      <use xlink:href="#Dice4"/>
   </g>
   <g id="FieldCol2Row4" transform="translate(110 280)">
      <use xlink:href="#Field" x="0" y="0"/>
      <use xlink:href="#Start"/>
   </g>
   <g id="FieldCol2Row5" transform="translate(110 340)">
      <use xlink:href="#Field" x="0" y="0"/>
      <use xlink:href="#Dice1"/>
   </g>
   <g id="FieldCol2Row6" transform="translate(110 400)">
      <use xlink:href="#Field" x="0" y="0"/>
      <image x="2.5"
             y="2.5"
             width="54"
             height="54"
             opacity="0.9"
             href="src/PurpleGem.png"/>
      <use xlink:href="#Dice3"/>
   </g>
   <g id="FieldCol2Row7" transform="translate(110 460)">
      <use xlink:href="#Field" x="0" y="0"/>
      <image x="2.5"
             y="2.5"
             width="54"
             height="54"
             opacity="0.9"
             href="src/PurpleGem.png"/>
      <use xlink:href="#Dice1"/>
   </g>
   <g id="FieldCol3Row1" transform="translate(170 100)">
      <use xlink:href="#Field" x="0" y="0"/>
      <image x="2.5"
             y="2.5"
             width="54"
             height="54"
             opacity="0.9"
             href="src/CrossedField_Bomb.png"/>
      <use xlink:href="#Dice6"/>
   </g>
   <g id="FieldCol3Row2" transform="translate(170 160)">
      <use xlink:href="#Field" x="0" y="0"/>
      <image x="2.5"
             y="2.5"
             width="54"
             height="54"
             opacity="0.9"
             href="src/PurpleGem.png"/>
      <use xlink:href="#Dice4"/>
   </g>
   <g id="FieldCol3Row3" transform="translate(170 220)">
      <use xlink:href="#Field" x="0" y="0"/>
      <use xlink:href="#Dice3"/>
   </g>
   <g id="FieldCol3Row4" transform="translate(170 280)">
      <use xlink:href="#Field" x="0" y="0"/>
      <use xlink:href="#Start"/>
   </g>
   <g id="FieldCol3Row5" transform="translate(170 340)">
      <use xlink:href="#Field" x="0" y="0"/>
      <use xlink:href="#Dice6"/>
   </g>
   <g id="FieldCol3Row6" transform="translate(170 400)">
      <use xlink:href="#Field" x="0" y="0"/>
      <image x="2.5"
             y="2.5"
             width="54"
             height="54"
             opacity="0.9"
             href="src/PurpleGem.png"/>
      <use xlink:href="#Dice2"/>
   </g>
   <g id="FieldCol3Row7" transform="translate(170 460)">
      <use xlink:href="#Field" x="0" y="0"/>
      <image x="2.5"
             y="2.5"
             width="54"
             height="54"
             opacity="0.9"
             href="src/PurpleGem.png"/>
      <use xlink:href="#Dice4"/>
   </g>
   <g id="FieldCol4Row1" transform="translate(230 100)">
      <use xlink:href="#Field" x="0" y="0"/>
      <image x="2.5"
             y="2.5"
             width="54"
             height="54"
             opacity="0.9"
             href="src/PurpleGem.png"/>
      <use xlink:href="#Dice2"/>
   </g>
   <g id="FieldCol4Row2" transform="translate(230 160)">
      <use xlink:href="#Field" x="0" y="0"/>
      <image x="2.5"
             y="2.5"
             width="54"
             height="54"
             opacity="0.9"
             href="src/PurpleGem.png"/>
      <use xlink:href="#Dice2"/>
   </g>
   <g id="FieldCol4Row3" transform="translate(230 220)">
      <use xlink:href="#Field" x="0" y="0"/>
      <use xlink:href="#Dice1"/>
   </g>
   <g id="FieldCol4Row4" transform="translate(230 280)">
      <use xlink:href="#Field" x="0" y="0"/>
      <use xlink:href="#Dice2"/>
   </g>
   <g id="FieldCol4Row5" transform="translate(230 340)">
      <use xlink:href="#Field" x="0" y="0"/>
      <use xlink:href="#Dice3"/>
   </g>
   <g id="FieldCol4Row6" transform="translate(230 400)">
      <use xlink:href="#Field" x="0" y="0"/>
      <image x="2.5"
             y="2.5"
             width="54"
             height="54"
             opacity="0.9"
             href="src/PurpleGem.png"/>
      <use xlink:href="#Dice1"/>
   </g>
   <g id="FieldCol4Row7" transform="translate(230 460)">
      <use xlink:href="#Field" x="0" y="0"/>
      <image x="2.5"
             y="2.5"
             width="54"
             height="54"
             opacity="0.9"
             href="src/PurpleGem.png"/>
      <use xlink:href="#Dice6"/>
   </g>
   <g id="FieldCol5Row1" transform="translate(290 100)">
      <use xlink:href="#Field" x="0" y="0"/>
      <image x="2.5"
             y="2.5"
             width="54"
             height="54"
             opacity="0.9"
             href="src/CrossedField_Bomb.png"/>
      <use xlink:href="#Dice3"/>
   </g>
   <g id="FieldCol5Row2" transform="translate(290 160)">
      <use xlink:href="#Field" x="0" y="0"/>
      <image x="2.5"
             y="2.5"
             width="54"
             height="54"
             opacity="0.9"
             href="src/GoldenLock_Lock.png"/>
      <use xlink:href="#Dice4"/>
   </g>
   <g id="FieldCol5Row3" transform="translate(290 220)">
      <use xlink:href="#Field" x="0" y="0"/>
      <use xlink:href="#Dice5"/>
   </g>
   <g id="FieldCol5Row4" transform="translate(290 280)">
      <use xlink:href="#Field" x="0" y="0"/>
      <use xlink:href="#Dice3"/>
   </g>
   <g id="FieldCol5Row5" transform="translate(290 340)">
      <use xlink:href="#Field" x="0" y="0"/>
      <use xlink:href="#Dice4"/>
   </g>
   <g id="FieldCol5Row6" transform="translate(290 400)">
      <use xlink:href="#Field" x="0" y="0"/>
      <image x="2.5"
             y="2.5"
             width="54"
             height="54"
             opacity="0.9"
             href="src/BluePuzzle_single.png"/>
      <use xlink:href="#Dice2"/>
   </g>
   <g id="FieldCol5Row7" transform="translate(290 460)">
      <use xlink:href="#Field" x="0" y="0"/>
      <image x="2.5"
             y="2.5"
             width="54"
             height="54"
             opacity="0.9"
             href="src/GoldenLock_Key.png"/>
      <use xlink:href="#Dice4"/>
   </g>
   <g id="FieldCol6Row1" transform="translate(350 100)"/>
   <g id="FieldCol6Row2" transform="translate(350 160)">
      <use xlink:href="#Field" x="0" y="0"/>
      <use xlink:href="#Dice3"/>
   </g>
   <g id="FieldCol6Row3" transform="translate(350 220)"/>
   <g id="FieldCol6Row4" transform="translate(350 280)"/>
   <g id="FieldCol6Row5" transform="translate(350 340)"/>
   <g id="FieldCol6Row6" transform="translate(350 400)"/>
   <g id="FieldCol6Row7" transform="translate(350 460)"/>
   <g id="FieldCol7Row1" transform="translate(410 100)">
      <use xlink:href="#Field" x="0" y="0"/>
      <image x="2.5"
             y="2.5"
             width="54"
             height="54"
             opacity="0.9"
             href="src/YellowGem.png"/>
      <use xlink:href="#Dice4"/>
   </g>
   <g id="FieldCol7Row2" transform="translate(410 160)">
      <use xlink:href="#Field" x="0" y="0"/>
      <use xlink:href="#Dice5"/>
   </g>
   <g id="FieldCol7Row3" transform="translate(410 220)">
      <use xlink:href="#Field" x="0" y="0"/>
      <image x="2.5"
             y="2.5"
             width="54"
             height="54"
             opacity="0.9"
             href="src/YellowGem.png"/>
      <use xlink:href="#Dice6"/>
   </g>
   <g id="FieldCol7Row4" transform="translate(410 280)"/>
   <g id="FieldCol7Row5" transform="translate(410 340)">
      <use xlink:href="#Field" x="0" y="0"/>
      <image x="2.5"
             y="2.5"
             width="54"
             height="54"
             opacity="0.9"
             href="src/BluePuzzle_single.png"/>
      <use xlink:href="#Dice4"/>
   </g>
   <g id="FieldCol7Row6" transform="translate(410 400)">
      <use xlink:href="#Field" x="0" y="0"/>
      <use xlink:href="#Dice1"/>
   </g>
   <g id="FieldCol7Row7" transform="translate(410 460)">
      <use xlink:href="#Field" x="0" y="0"/>
      <image x="2.5"
             y="2.5"
             width="54"
             height="54"
             opacity="0.9"
             href="src/Travel_Planet.png"/>
      <use xlink:href="#Dice4"/>
   </g>
   <g id="FieldCol8Row1" transform="translate(470 100)">
      <use xlink:href="#Field" x="0" y="0"/>
      <image x="2.5"
             y="2.5"
             width="54"
             height="54"
             opacity="0.9"
             href="src/YellowGem.png"/>
      <use xlink:href="#Dice2"/>
   </g>
   <g id="FieldCol8Row2" transform="translate(470 160)">
      <use xlink:href="#Field" x="0" y="0"/>
      <use xlink:href="#Dice5"/>
   </g>
   <g id="FieldCol8Row3" transform="translate(470 220)">
      <use xlink:href="#Field" x="0" y="0"/>
      <image x="2.5"
             y="2.5"
             width="54"
             height="54"
             opacity="0.9"
             href="src/YellowGem.png"/>
      <use xlink:href="#Dice3"/>
   </g>
   <g id="FieldCol8Row4" transform="translate(470 280)"/>
   <g id="FieldCol8Row5" transform="translate(470 340)">
      <use xlink:href="#Field" x="0" y="0"/>
      <image x="2.5"
             y="2.5"
             width="54"
             height="54"
             opacity="0.9"
             href="src/OrangeGem.png"/>
      <use xlink:href="#Dice5"/>
   </g>
   <g id="FieldCol8Row6" transform="translate(470 400)">
      <use xlink:href="#Field" x="0" y="0"/>
      <use xlink:href="#Dice2"/>
   </g>
   <g id="FieldCol8Row7" transform="translate(470 460)">
      <use xlink:href="#Field" x="0" y="0"/>
      <image x="2.5"
             y="2.5"
             width="54"
             height="54"
             opacity="0.9"
             href="src/OrangeGem.png"/>
      <use xlink:href="#Dice6"/>
   </g>
   <g id="FieldCol9Row1" transform="translate(530 100)">
      <use xlink:href="#Field" x="0" y="0"/>
      <image x="2.5"
             y="2.5"
             width="54"
             height="54"
             opacity="0.9"
             href="src/BlueFlag.png"/>
      <use xlink:href="#Dice6"/>
   </g>
   <g id="FieldCol9Row2" transform="translate(530 160)">
      <use xlink:href="#Field" x="0" y="0"/>
      <use xlink:href="#Dice1"/>
   </g>
   <g id="FieldCol9Row3" transform="translate(530 220)">
      <use xlink:href="#Field" x="0" y="0"/>
      <image x="2.5"
             y="2.5"
             width="54"
             height="54"
             opacity="0.9"
             href="src/BluePuzzle_single.png"/>
      <use xlink:href="#Dice4"/>
   </g>
   <g id="FieldCol9Row4" transform="translate(530 280)">
      <use xlink:href="#Field" x="0" y="0"/>
      <image x="2.5"
             y="2.5"
             width="54"
             height="54"
             opacity="0.9"
             href="src/GoldenLock_Lock.png"/>
      <use xlink:href="#Dice6"/>
   </g>
   <g id="FieldCol9Row5" transform="translate(530 340)">
      <use xlink:href="#Field" x="0" y="0"/>
      <image x="2.5"
             y="2.5"
             width="54"
             height="54"
             opacity="0.9"
             href="src/OrangeGem.png"/>
      <use xlink:href="#Dice5"/>
   </g>
   <g id="FieldCol9Row6" transform="translate(530 400)">
      <use xlink:href="#Field" x="0" y="0"/>
      <use xlink:href="#Dice3"/>
   </g>
   <g id="FieldCol9Row7" transform="translate(530 460)">
      <use xlink:href="#Field" x="0" y="0"/>
      <image x="2.5"
             y="2.5"
             width="54"
             height="54"
             opacity="0.9"
             href="src/OrangeGem.png"/>
      <use xlink:href="#Dice1"/>
   </g>
   <g id="ArrowCol0Row2" transform="translate(-10,160)">
      <use xlink:href="#Arrow_r"/>
      <text id="TextArrowPoints" text-anchor="start" x="38" y="50">15</text>
   </g>
   <g id="ArrowCol6Row3" transform="translate(350,220)">
      <use xlink:href="#Arrow_l"/>
      <text id="TextArrowPoints" text-anchor="end" x="23" y="50">5</text>
   </g>
   <g id="ArrowCol6Row4" transform="translate(350,280)">
      <use xlink:href="#Arrow_l"/>
      <text id="TextArrowPoints" text-anchor="end" x="23" y="50">5</text>
   </g>
   <g id="ArrowCol6Row5" transform="translate(350,340)">
      <use xlink:href="#Arrow_l"/>
      <text id="TextArrowPoints" text-anchor="end" x="23" y="50">5</text>
   </g>
   <g id="ArrowCol6Row6" transform="translate(350,400)">
      <use xlink:href="#Arrow_l"/>
      <text id="TextArrowPoints" text-anchor="end" x="23" y="50">5</text>
   </g>
   <g id="ArrowCol6Row6" transform="translate(350,400)">
      <use xlink:href="#Arrow_r"/>
      <text id="TextArrowPoints" text-anchor="start" x="38" y="50">3</text>
   </g>
   <g id="ArrowCol6Row7" transform="translate(350,460)">
      <use xlink:href="#Arrow_l"/>
      <text id="TextArrowPoints" text-anchor="end" x="23" y="50">5</text>
   </g>
   <g id="ArrowCol2Row8" transform="translate(110,520)">
      <use xlink:href="#Arrow_u"/>
      <text id="TextArrowPoints" text-anchor="start" x="38" y="22">10</text>
   </g>
   <g id="ArrowCol4Row8" transform="translate(230,520)">
      <use xlink:href="#Arrow_u"/>
      <text id="TextArrowPoints" text-anchor="start" x="38" y="22">10</text>
   </g>
   <g transform="translate(630 70)">
      <rect width="200"
            height="480"
            fill="white"
            stroke="black"
            stroke-opacity="50%"
            stroke-width="1px"
            rx="5"
            ry="5"/>
      <g transform="translate(0 0)">
         <image href="src/PurpleGem.png"
                x="20"
                y="30"
                transform="scale(0.55)"
                height="65"/>
         <text id="TextCategory" x="88" y="40">(+1)</text>
         <use xlink:href="#CategoryLine"/>
      </g>
      <g transform="translate(0 50)">
         <image href="src/YellowGem.png"
                x="20"
                y="30"
                transform="scale(0.55)"
                height="65"/>
         <text id="TextCategory" x="88" y="40">(+2)</text>
         <use xlink:href="#CategoryLine"/>
      </g>
      <g transform="translate(0 100)">
         <image href="src/OrangeGem.png"
                x="20"
                y="30"
                transform="scale(0.55)"
                height="65"/>
         <text id="TextCategory" x="88" y="40">(+3)</text>
         <use xlink:href="#CategoryLine"/>
      </g>
      <g transform="translate(0 150)">
         <image href="src/Arrow_right.png"
                x="20"
                y="30"
                transform="scale(0.55)"
                height="65"/>
         <text id="TextCategory" x="88" y="40">(+?)</text>
         <use xlink:href="#CategoryLine"/>
      </g>
      <g transform="translate(0 200)">
         <image href="src/Arrow_up.png"
                x="20"
                y="30"
                transform="scale(0.55)"
                height="65"/>
         <text id="TextCategory" x="88" y="40">(+?)</text>
         <use xlink:href="#CategoryLine"/>
      </g>
      <g transform="translate(0 250)">
         <image href="src/BluePuzzle.png"
                x="20"
                y="30"
                transform="scale(0.55)"
                height="65"/>
         <text id="TextCategory" x="88" y="40">(+15)</text>
         <use xlink:href="#CategoryLine"/>
      </g>
      <g transform="translate(0 300)">
         <image href="src/BlueFlag.png"
                x="20"
                y="30"
                transform="scale(0.55)"
                height="65"/>
         <text id="TextCategory" x="150" y="45">10 - 6 - 3 - 1</text>
      </g>
      <g transform="translate(0 350)">
         <image href="src/CrossedField.png"
                x="20"
                y="30"
                transform="scale(0.55)"
                height="65"/>
         <text id="TextCategory" x="88" y="40">(-2)</text>
         <use xlink:href="#CategoryLine"/>
      </g>
      <text x="70"
            y="458"
            font-weight="bold"
            font-family="Arial, sans-serif"
            text-anchor="end">Total:</text>
      <use y="415" xlink:href="#TotalLine"/>
   </g>
</svg>
